<svg version="1.1" id="Layer_1" xmlns="http://www.w3.org/2000/svg" xmlns:xlink="http://www.w3.org/1999/xlink" x="0" y="0" viewBox="0 0 1089 666" style="enable-background:new 0 0 1089 666" xml:space="preserve"><style>.st0,.st1,.st2{fill:none;stroke:#adadad;stroke-width:.8742;stroke-miterlimit:10}.st1,.st2{stroke-dasharray:0,0,4.0122,2.0061}.st2{stroke-dasharray:0,0,4,2}.st9{fill:#122742}.st13,.st14,.st15{fill:none;stroke:#adadad;stroke-width:.8742;stroke-miterlimit:10;stroke-dasharray:0,0,4.0526,2.0263}.st14,.st15{stroke-dasharray:0,0,4.0263,2.0132}.st15{stroke-dasharray:0,0,3.9726,1.9863}.st16{fill:#c52e48}.st17,.st19{fill:none;stroke:#000;stroke-width:.8742;stroke-miterlimit:10}.st19{stroke-width:.8}.st20{stroke-width:2}.st20,.st21{fill:none;stroke:#c22e4a;stroke-miterlimit:10}.st22{fill:#c22e4a}.st25,.st27{fill:none;stroke:#c46c6c;stroke-width:.8;stroke-miterlimit:10}.st27{stroke:#6cc398}.st31{fill:#2b2b2b}</style><path class="st0" d="M713.5 529.5v2h-2"/><path class="st1" d="M709.5 531.5h-655"/><path class="st0" d="M53.5 531.5h-2v-2"/><path class="st2" d="M51.5 527.5v-323"/><path class="st0" d="M51.5 203.5v-2h2"/><path class="st1" d="M55.5 201.5h655"/><path class="st0" d="M711.5 201.5h2v2"/><path class="st2" d="M713.5 205.5v323"/><path style="opacity:5.000000e-02;fill:#fff;stroke:#c22e4a;stroke-width:1.8;stroke-miterlimit:10;enable-background:new" d="M371.6 251.2h265.9v89.3H371.6z"/><path style="opacity:.2;fill:#fff;stroke:#c22e4a;stroke-width:1.8;stroke-miterlimit:10;enable-background:new" d="M361.6 261.2h265.9v89.3H361.6z"/><path style="opacity:.4;fill:#fff;stroke:#c22e4a;stroke-width:1.8;stroke-miterlimit:10;enable-background:new" d="M351.6 271.2h265.9v89.3H351.6z"/><path style="opacity:.6;fill:#fff;stroke:#c22e4a;stroke-width:1.8;stroke-miterlimit:10;enable-background:new" d="M341.6 281.2h265.9v89.3H341.6z"/><path style="fill:#fff;stroke:#c22e4a;stroke-width:1.8;stroke-miterlimit:10" d="M334.4 292h263.9v89.3H334.4z"/><path style="fill:#fff;stroke:#122742;stroke-width:2;stroke-miterlimit:10" d="M115.4 292h206.9v89.3H115.4z"/><path class="st9" d="M171 342.5c0 4.9-3.6 8.5-8.5 8.5s-8.5-3.6-8.5-8.5 3.6-8.5 8.5-8.5 8.5 3.6 8.5 8.5zm-15 0c0 3.9 2.7 6.5 6.4 6.5s6.4-2.6 6.4-6.5-2.7-6.5-6.4-6.5-6.4 2.7-6.4 6.5zM176.8 344.2v6.6h-2.1v-16.5h6.3c3.7 0 5.8 1.9 5.8 4.9 0 3.1-2.1 4.9-5.8 4.9l-4.2.1zm0-7.9v6h4.1c2.4 0 3.7-1 3.7-3s-1.3-3-3.7-3h-4.1zM202.1 350.8h-11.7v-16.5H202v1.9h-9.5v5.3h9.2v2h-9.2v5.4h9.6v1.9zM212.8 334.3c3.7 0 5.8 1.7 5.8 4.7 0 2.9-2.2 4.7-5.8 4.7h-.1l5.8 7.1H216l-5.7-7.1h-1.9v7.1h-2.1v-16.5h6.5zm-4.4 1.9v5.5h4.4c2.4 0 3.7-1 3.7-2.8 0-1.8-1.3-2.7-3.7-2.7h-4.4zM236.3 350.8h-2.2l-1.8-4.5h-8l-1.8 4.5h-2.2l6.7-16.5h2.6l6.7 16.5zm-11.2-6.5h6.4l-3.2-8-3.2 8zM249.3 336.3h-5.6v14.5h-2.1v-14.5H236v-2h13.3v2zM267.8 342.5c0 4.9-3.6 8.5-8.5 8.5s-8.5-3.6-8.5-8.5 3.6-8.5 8.5-8.5c4.9.1 8.5 3.6 8.5 8.5zm-14.9 0c0 3.9 2.7 6.5 6.4 6.5s6.4-2.6 6.4-6.5-2.7-6.5-6.4-6.5-6.4 2.7-6.4 6.5zM278.1 334.3c3.7 0 5.8 1.7 5.8 4.7 0 2.9-2.2 4.7-5.8 4.7h-.1l5.8 7.1h-2.6l-5.7-7.1h-1.9v7.1h-2.1v-16.5h6.6zm-4.5 1.9v5.5h4.4c2.4 0 3.7-1 3.7-2.8 0-1.8-1.3-2.7-3.7-2.7h-4.4zM169.4 322.3h2.5v7.4h-2.5zM166.3 322.4l-5.1 3.1h-.2l-5.1-3.1c-.1-.1-.2-.1-.4-.1-.4 0-.7.3-.7.7v6.7h2.5v-3.2c0-.2.2-.3.4-.2l2.9 1.8c.3.2.6.2.9 0l3-1.8c.2-.1.4 0 .4.2v3.2h2.5V323c0-.4-.3-.7-.7-.7-.1 0-.2 0-.4.1zM184.5 322.3h-2.6v3.4c0 .2-.2.3-.4.2l-6.6-3.5c-.1-.1-.2-.1-.3-.1-.4 0-.7.3-.7.7v6.7h2.5v-3.3c0-.2.2-.3.4-.2l6.6 3.5c.1.1.2.1.3.1.4 0 .7-.3.7-.7l.1-6.8zM186.5 329.7v-7.4h1.2v7.4h-1.2zM194.4 329.9c-3.1 0-5.3-1.5-5.3-3.8 0-2.4 2.2-3.8 5.3-3.8s5.3 1.5 5.3 3.8-2.1 3.8-5.3 3.8zm0-6.7c-2.3 0-4.1 1-4.1 2.9s1.8 2.9 4.1 2.9 4.1-1 4.1-2.9-1.8-2.9-4.1-2.9z"/><path d="M353.3 300.9h-2.4v6.2h-.8v-6.2h-2.4v-.8h5.7v.8zM359.4 307.2h-4.9v-7h4.9v.8h-4.1v2.3h4v.8h-4v2.4h4.1v.7zM367.1 307.2h-.7l-4.3-5.6v5.6h-.8v-7h.7l4.3 5.6v-5.6h.8v7zM375.1 307.2h-.9l-.8-2h-3.5l-.8 2h-.8l2.9-7h1l2.9 7zm-4.9-2.7h2.9l-1.4-3.5-1.5 3.5zM382.1 307.2h-.7l-4.3-5.6v5.6h-.8v-7h.7l4.3 5.6v-5.6h.8v7zM389 300.9h-2.4v6.2h-.8v-6.2h-2.4v-.8h5.7v.8zM398.4 307.2h-.9l-.8-2h-3.5l-.8 2h-.8l2.9-7h1l2.9 7zm-4.8-2.7h2.9L395 301l-1.4 3.5z"/><path style="fill:none;stroke:#df9d9b;stroke-miterlimit:10" d="M334.4 392h263.9v59.3H334.4z"/><path style="fill:none;stroke:#9bdfbf;stroke-miterlimit:10" d="M334.4 462h263.9v59.3H334.4z"/><path style="fill:none;stroke:#9bbbdf;stroke-miterlimit:10" d="M334.4 542h263.9v59.3H334.4z"/><path d="M284.8 420.4h5.9v-4.3h1.1v9.8h-1.1v-4.4h-5.9v4.4h-1.1v-9.8h1.1v4.3zM304.3 421c0 2.9-2.1 5-5.1 5-2.9 0-5.1-2.1-5.1-5s2.2-5 5.1-5c2.9-.1 5.1 2 5.1 5zm-9 0c0 2.4 1.7 4 3.9 4s3.9-1.6 3.9-4-1.7-4-3.9-4-3.9 1.6-3.9 4zM313.1 417.1h-3.4v8.7h-1.1v-8.7h-3.4V416h7.9v1.1zM277.6 495.9h-1.4l-2.7-8.3-2.7 8.3h-1.4l-3.2-9.8h1.2l2.7 8.5 2.8-8.5h1.3l2.8 8.5 2.7-8.5h1.2l-3.3 9.8zM290.3 495.9h-1.2l-1.1-2.7h-4.9l-1.1 2.7h-1.2l4-9.8h1.4l4.1 9.8zm-6.8-3.8h4l-2-4.9-2 4.9zM295.8 486.1c2.2 0 3.4 1 3.4 2.8 0 1.7-1.3 2.8-3.4 2.8h-.2l3.5 4.3h-1.4l-3.5-4.3H293v4.3h-1.1v-9.8h3.9zm-2.7 1v3.5h2.7c1.5 0 2.3-.6 2.3-1.8 0-1.1-.8-1.7-2.3-1.7h-2.7zM311.7 495.9h-1.1v-8.5l-3.4 7.5H306l-3.4-7.4v8.5h-1.1v-9.8h1.7l3.4 7.4 3.4-7.4h1.7v9.7zM280.9 568l-.9.6c-.6-1-1.8-1.6-3.1-1.6-2.2 0-3.9 1.6-3.9 4s1.7 4 3.9 4c1.3 0 2.4-.6 3.1-1.6l.9.7c-.8 1.2-2.3 2-4 2-2.9 0-5.1-2.1-5.1-5s2.2-5 5.1-5c1.8-.2 3.3.6 4 1.9zM292.5 571c0 2.9-2.1 5-5.1 5-2.9 0-5.1-2.1-5.1-5s2.2-5 5.1-5c3-.1 5.1 2 5.1 5zm-8.9 0c0 2.4 1.7 4 3.9 4s3.9-1.6 3.9-4-1.7-4-3.9-4-3.9 1.6-3.9 4zM301.6 575.9h-6.8v-9.8h1.1v8.7h5.7v1.1zM307 566.1c3.2 0 5.2 1.9 5.2 4.9 0 3-2 4.9-5.2 4.9h-3.7v-9.8h3.7zm-2.6 1v7.7h2.6c2.7 0 4-1.5 4-3.8s-1.4-3.8-4-3.8h-2.6z"/><path class="st0" d="M209.5 189.5v2h-2"/><path class="st13" d="M205.4 191.5H54.5"/><path class="st0" d="M53.5 191.5h-2v-2"/><path class="st2" d="M51.5 187.5v-113"/><path class="st0" d="M51.5 73.5v-2h2"/><path class="st13" d="M55.5 71.5h151"/><path class="st0" d="M207.5 71.5h2v2"/><path class="st2" d="M209.5 75.5v113"/><path d="M565.3 62.9h-1.1v-9.8h1.1v9.8zM571.8 53.1c3.2 0 5.2 1.9 5.2 4.9 0 3-2 4.9-5.2 4.9h-3.7v-9.8h3.7zm-2.5 1.1v7.7h2.6c2.7 0 4-1.5 4-3.8s-1.4-3.8-4-3.8h-2.6zM586.2 62.9h-6.9v-9.8h6.8v1.1h-5.7v3.3h5.5v1.1h-5.5V62h5.8v.9zM597 62.9h-1l-6.1-7.9v7.9h-1.1v-9.8h1l6.1 7.9v-7.9h1.1v9.8zM606.6 54.2h-3.4v8.7h-1.1v-8.7h-3.4v-1.1h7.9v1.1zM609.4 62.9h-1.1v-9.8h1.1v9.8zM619 54.2h-3.4v8.7h-1.1v-8.7h-3.4v-1.1h7.9v1.1zM624.6 58.8v4.1h-1.1v-4.1l-3.9-5.7h1.3l3.1 4.7 3.1-4.7h1.3c.1 0-3.8 5.7-3.8 5.7zM634.5 59v3.9h-1.1v-9.8h3.7c2.2 0 3.5 1.1 3.5 2.9s-1.3 2.9-3.5 2.9h-2.6zm0-4.8v3.7h2.5c1.5 0 2.3-.6 2.3-1.9 0-1.2-.8-1.9-2.3-1.9l-2.5.1zM646.6 53.1c2.2 0 3.4 1 3.4 2.8 0 1.7-1.3 2.8-3.4 2.8h-.2l3.5 4.3h-1.4l-3.5-4.3h-1.2V63h-1.1v-9.8c0-.1 3.9-.1 3.9-.1zm-2.8 1v3.5h2.7c1.5 0 2.3-.6 2.3-1.8 0-1.1-.8-1.7-2.3-1.7h-2.7zM661.7 58c0 2.9-2.1 5-5.1 5-2.9 0-5.1-2.1-5.1-5s2.2-5 5.1-5c3-.1 5.1 2 5.1 5zm-8.9 0c0 2.4 1.7 4 3.9 4s3.9-1.6 3.9-4-1.7-4-3.9-4-3.9 1.6-3.9 4zM668 62.9h-1.4l-3.9-9.8h1.2l3.4 8.7 3.5-8.7h1.2l-4 9.8zM674.7 62.9h-1.1v-9.8h1.1v9.8zM681.2 53.1c3.2 0 5.2 1.9 5.2 4.9 0 3-2 4.9-5.2 4.9h-3.7v-9.8h3.7zm-2.6 1.1v7.7h2.6c2.7 0 4-1.5 4-3.8s-1.4-3.8-4-3.8h-2.6zM695.6 62.9h-6.9v-9.8h6.8v1.1h-5.7v3.3h5.5v1.1h-5.5V62h5.8v.9zM702 53.1c2.2 0 3.4 1 3.4 2.8 0 1.7-1.3 2.8-3.4 2.8h-.2l3.5 4.3h-1.4l-3.5-4.3h-1.2V63h-1.1v-9.8c0-.1 3.9-.1 3.9-.1zm-2.7 1v3.5h2.7c1.5 0 2.3-.6 2.3-1.8 0-1.1-.8-1.7-2.3-1.7h-2.7z"/><path class="st0" d="M377.5 189.5v2h-2"/><path class="st13" d="M373.4 191.5H222.5"/><path class="st0" d="M221.5 191.5h-2v-2"/><path class="st2" d="M219.5 187.5v-113"/><path class="st0" d="M219.5 73.5v-2h2"/><path class="st13" d="M223.5 71.5h151"/><path class="st0" d="M375.5 71.5h2v2"/><path class="st2" d="M377.5 75.5v113"/><path d="M91.7 62.9h-6.9v-9.8h6.8v1.1h-5.7v3.3h5.5v1.1h-5.5V62h5.8v.9zM102.5 62.9h-1L95.4 55v7.9h-1.1v-9.8h1l6.1 7.9v-7.9h1.1v9.8zM113.8 55l-.9.6c-.6-1-1.8-1.6-3.1-1.6-2.2 0-3.9 1.6-3.9 4s1.7 4 3.9 4c1.3 0 2.4-.6 3.1-1.6l.9.7c-.8 1.2-2.3 2-4 2-2.9 0-5.1-2.1-5.1-5s2.1-5 5.1-5c1.7-.2 3.2.6 4 1.9zM119.8 53.1c2.2 0 3.4 1 3.4 2.8 0 1.7-1.3 2.8-3.4 2.8h-.2l3.5 4.3h-1.4l-3.5-4.3H117V63h-1v-9.8l3.8-.1zm-2.7 1v3.5h2.7c1.5 0 2.3-.6 2.3-1.8 0-1.1-.8-1.7-2.3-1.7h-2.7zM129 58.8v4.1h-1.1v-4.1l-3.9-5.7h1.3l3.1 4.7 3.1-4.7h1.3c.1 0-3.8 5.7-3.8 5.7zM135.5 59v3.9h-1.1v-9.8h3.7c2.2 0 3.5 1.1 3.5 2.9s-1.3 2.9-3.5 2.9h-2.6zm0-4.8v3.7h2.5c1.5 0 2.3-.6 2.3-1.9 0-1.2-.8-1.9-2.3-1.9l-2.5.1zM150.4 54.2H147v8.7h-1.1v-8.7h-3.4v-1.1h7.9v1.1zM153.3 62.9h-1.1v-9.8h1.1v9.8zM165.7 58c0 2.9-2.1 5-5.1 5-2.9 0-5.1-2.1-5.1-5s2.1-5 5.1-5c2.9-.1 5.1 2 5.1 5zm-9 0c0 2.4 1.7 4 3.9 4s3.9-1.6 3.9-4-1.7-4-3.9-4-3.9 1.6-3.9 4zM176.1 62.9h-1L169 55v7.9h-1.1v-9.8h1L175 61v-7.9h1.1v9.8z"/><path class="st0" d="M545.5 189.5v2h-2"/><path class="st13" d="M541.4 191.5H390.5"/><path class="st0" d="M389.5 191.5h-2v-2"/><path class="st2" d="M387.5 187.5v-113"/><path class="st0" d="M387.5 73.5v-2h2"/><path class="st13" d="M391.5 71.5h151"/><path class="st0" d="M543.5 71.5h2v2"/><path class="st2" d="M545.5 75.5v113"/><path d="M264.1 62.9h-1.2l-1.1-2.7h-4.9l-1.1 2.7h-1.2l4-9.8h1.4l4.1 9.8zm-6.7-3.8h4l-2-4.9-2 4.9zM273.5 59.1c0 2.7-1.8 4-4 4s-4-1.3-4-4v-6h1.1V59c0 2.1 1.2 3 2.9 3s2.9-.9 2.9-3v-5.9h1.1v6zM279.9 53.1c3.2 0 5.2 1.9 5.2 4.9 0 3-2 4.9-5.2 4.9h-3.7v-9.8h3.7zm-2.6 1.1v7.7h2.6c2.7 0 4-1.5 4-3.8s-1.4-3.8-4-3.8h-2.6zM288.5 62.9h-1.1v-9.8h1.1v9.8zM298.1 54.2h-3.4v8.7h-1.1v-8.7h-3.4v-1.1h7.9v1.1zM310.1 62.9h-6.8v-9.8h1.1v8.7h5.7v1.1zM320.8 58c0 2.9-2.1 5-5.1 5-2.9 0-5.1-2.1-5.1-5s2.1-5 5.1-5c3-.1 5.1 2 5.1 5zm-8.9 0c0 2.4 1.7 4 3.9 4s3.9-1.6 3.9-4-1.7-4-3.9-4c-2.3 0-3.9 1.6-3.9 4zM331.4 54.6l-.8.8c-.7-.8-1.8-1.4-3-1.4-2.2 0-3.9 1.6-3.9 4s1.7 4 3.8 4c2.1 0 3.4-1.2 3.5-3.2h-3v-1.1h4.3v.3c0 2.9-1.8 5.1-4.8 5.1-2.6 0-5-1.9-5-5 0-2.9 2.2-5 5.1-5 1.5-.2 2.9.5 3.8 1.5zM340.9 54.9c-.8-.5-1.8-.9-3-.9-1.5 0-2.5.7-2.5 1.8 0 .9.7 1.4 2.3 1.6l.9.1c1.6.2 3.1.9 3.1 2.6 0 1.9-1.8 2.9-3.9 2.9-1.4 0-2.9-.5-3.9-1.3l.6-.9c.7.6 2 1.1 3.2 1.1 1.5 0 2.7-.6 2.7-1.8 0-1-.8-1.4-2.4-1.6l-1-.1c-1.7-.2-2.9-1-2.9-2.6 0-1.9 1.7-2.9 3.7-2.9 1.5 0 2.6.4 3.5 1.1l-.4.9z"/><path class="st0" d="M713.5 189.5v2h-2"/><path class="st13" d="M709.4 191.5H558.5"/><path class="st0" d="M557.5 191.5h-2v-2"/><path class="st2" d="M555.5 187.5v-113"/><path class="st0" d="M555.5 73.5v-2h2"/><path class="st13" d="M559.5 71.5h151"/><path class="st0" d="M711.5 71.5h2v2"/><path class="st2" d="M713.5 75.5v113"/><path d="M430.2 62.9h-1.1v-8.5l-3.4 7.5h-1.2l-3.4-7.4V63H420v-9.8h1.7l3.4 7.4 3.4-7.4h1.7v9.7zM442.6 58c0 2.9-2.1 5-5.1 5-2.9 0-5.1-2.1-5.1-5s2.1-5 5.1-5c3-.1 5.1 2 5.1 5zm-8.9 0c0 2.4 1.7 4 3.9 4s3.9-1.6 3.9-4-1.7-4-3.9-4c-2.3 0-3.9 1.6-3.9 4zM453.1 62.9h-1L446 55v7.9h-1.1v-9.8h1L452 61v-7.9h1.1v9.8zM457 62.9h-1.1v-9.8h1.1v9.8zM466.6 54.2h-3.4v8.7h-1.1v-8.7h-3.4v-1.1h7.9v1.1zM477.6 58c0 2.9-2.1 5-5.1 5-2.9 0-5.1-2.1-5.1-5s2.2-5 5.1-5c3-.1 5.1 2 5.1 5zm-8.9 0c0 2.4 1.7 4 3.9 4s3.9-1.6 3.9-4-1.7-4-3.9-4-3.9 1.6-3.9 4zM483.7 53.1c2.2 0 3.4 1 3.4 2.8 0 1.7-1.3 2.8-3.4 2.8h-.2L487 63h-1.4l-3.5-4.3H481V63h-1.1v-9.8c0-.1 3.8-.1 3.8-.1zm-2.7 1v3.5h2.7c1.5 0 2.3-.6 2.3-1.8 0-1.1-.8-1.7-2.3-1.7H481zM490.5 62.9h-1.1v-9.8h1.1v9.8zM501.5 62.9h-1l-6.1-7.9v7.9h-1.1v-9.8h1l6.1 7.9v-7.9h1.1v9.8zM512.7 54.6l-.8.8c-.7-.8-1.8-1.4-3-1.4-2.2 0-3.9 1.6-3.9 4s1.7 4 3.8 4c2.1 0 3.4-1.2 3.5-3.2h-3.1v-1.1h4.3v.3c0 2.9-1.8 5.1-4.8 5.1-2.6 0-5-1.9-5-5 0-2.9 2.2-5 5.1-5 1.6-.2 3 .5 3.9 1.5z"/><path class="st0" d="M880.5 319.5v2h-2"/><path class="st14" d="M876.5 321.5h-150"/><path class="st0" d="M725.5 321.5h-2v-2"/><path class="st2" d="M723.5 317.5v-113"/><path class="st0" d="M723.5 203.5v-2h2"/><path class="st14" d="M727.5 201.5h150"/><path class="st0" d="M878.5 201.5h2v2"/><path class="st2" d="M880.5 205.5v113"/><path d="m760.7 185-.9.6c-.6-1-1.8-1.6-3.1-1.6-2.2 0-3.9 1.6-3.9 4s1.7 4 3.9 4c1.3 0 2.4-.6 3.1-1.6l.9.7c-.8 1.2-2.3 2-4 2-2.9 0-5.1-2.1-5.1-5s2.2-5 5.1-5c1.7-.2 3.3.6 4 1.9zM769.8 192.9H763v-9.8h6.8v1.1h-5.7v3.3h5.5v1.1h-5.5v3.4h5.8v.9zM776.2 183.1c2.2 0 3.4 1 3.4 2.8 0 1.7-1.3 2.8-3.4 2.8h-.2l3.5 4.3h-1.4l-3.5-4.3h-1.2v4.3h-1.1v-9.8h3.9zm-2.7 1v3.5h2.7c1.5 0 2.3-.6 2.3-1.8 0-1.1-.8-1.7-2.3-1.7h-2.7zM788.7 184.2h-3.4v8.7h-1.1v-8.7h-3.4v-1.1h7.9v1.1zM791.5 192.9h-1.1v-9.8h1.1v9.8zM800.8 188.5h-5.4v4.4h-1.1v-9.8h6.8v1.1h-5.7v3.3h5.4v1zM804.5 192.9h-1.1v-9.8h1.1v9.8zM815.8 185l-.9.6c-.6-1-1.8-1.6-3.1-1.6-2.2 0-3.9 1.6-3.9 4s1.7 4 3.9 4c1.3 0 2.4-.6 3.1-1.6l.9.7c-.8 1.2-2.3 2-4 2-2.9 0-5.1-2.1-5.1-5s2.2-5 5.1-5c1.7-.2 3.2.6 4 1.9zM826.3 192.9h-1.2l-1.1-2.7h-4.9l-1.1 2.7h-1.2l4-9.8h1.4l4.1 9.8zm-6.7-3.8h4l-2-4.9-2 4.9zM834 184.2h-3.4v8.7h-1.1v-8.7h-3.4v-1.1h7.9v1.1zM842.6 192.9h-6.9v-9.8h6.8v1.1h-5.7v3.3h5.5v1.1h-5.5v3.4h5.8v.9zM851.5 184.9c-.8-.5-1.8-.9-3-.9-1.5 0-2.5.7-2.5 1.8 0 .9.7 1.4 2.3 1.6l.9.1c1.6.2 3.1.9 3.1 2.6 0 1.9-1.8 2.9-3.9 2.9-1.4 0-2.9-.5-3.9-1.3l.6-.9c.7.6 2 1.1 3.2 1.1 1.5 0 2.7-.6 2.7-1.8 0-1-.8-1.4-2.4-1.6l-1-.1c-1.7-.2-2.9-1-2.9-2.6 0-1.9 1.7-2.9 3.7-2.9 1.5 0 2.6.4 3.5 1.1l-.4.9z"/><path class="st0" d="M880.5 459.5v2h-2"/><path class="st14" d="M876.5 461.5h-150"/><path class="st0" d="M725.5 461.5h-2v-2"/><path class="st2" d="M723.5 457.5v-113"/><path class="st0" d="M723.5 343.5v-2h2"/><path class="st14" d="M727.5 341.5h150"/><path class="st0" d="M878.5 341.5h2v2"/><path class="st2" d="M880.5 345.5v113"/><path d="M744.7 482.2h-6.8v-9.8h1.1v8.7h5.7v1.1zM755.4 477.3c0 2.9-2.1 5-5.1 5-2.9 0-5.1-2.1-5.1-5s2.2-5 5.1-5c3 0 5.1 2.1 5.1 5zm-8.9 0c0 2.4 1.7 4 3.9 4s3.9-1.6 3.9-4-1.7-4-3.9-4c-2.2.1-3.9 1.7-3.9 4zM765.7 482.2h-1.2l-1.1-2.7h-4.9l-1.1 2.7h-1.2l4-9.8h1.4l4.1 9.8zm-6.7-3.8h4l-2-4.9-2 4.9zM771 472.4c3.2 0 5.2 1.9 5.2 4.9 0 3-2 4.9-5.2 4.9h-3.7v-9.8h3.7zm-2.5 1.1v7.7h2.6c2.7 0 4-1.5 4-3.8s-1.4-3.8-4-3.8h-2.6zM786.1 472.4c2.1 0 3.5.7 3.5 2.6 0 1.1-.6 1.9-1.5 2.2 1 .3 1.7 1.1 1.7 2.3 0 1.9-1.4 2.7-3.6 2.7h-4v-9.8h3.9zm-2.7 1.1v3.2h2.6c1.4 0 2.4-.3 2.4-1.6s-1.1-1.6-2.4-1.6h-2.6zm0 4.3v3.4h2.8c1.5 0 2.4-.4 2.4-1.7 0-1.3-1-1.7-2.4-1.7h-2.8zM800.3 482.2h-1.2l-1.1-2.7h-4.9l-1.1 2.7h-1.2l4-9.8h1.4l4.1 9.8zm-6.7-3.8h4l-2-4.9-2 4.9zM808.8 482.2H802v-9.8h1.1v8.7h5.7v1.1zM819 482.2h-1.2l-1.1-2.7h-4.9l-1.1 2.7h-1.2l4-9.8h1.4l4.1 9.8zm-6.7-3.8h4l-2-4.9-2 4.9zM828.9 482.2h-1l-6.1-7.9v7.9h-1.1v-9.8h1l6.1 7.9v-7.9h1.1v9.8zM840.2 474.3l-.9.6c-.6-1-1.8-1.6-3.1-1.6-2.2 0-3.9 1.6-3.9 4s1.7 4 3.9 4c1.3 0 2.4-.6 3.1-1.6l.9.7c-.8 1.2-2.3 2-4 2-2.9 0-5.1-2.1-5.1-5s2.1-5 5.1-5c1.7-.1 3.2.6 4 1.9zM843.6 482.2h-1.1v-9.8h1.1v9.8zM854.6 482.2h-1l-6.1-7.9v7.9h-1.1v-9.8h1l6.1 7.9v-7.9h1.1v9.8zM865.7 473.9l-.8.8c-.7-.8-1.8-1.4-3-1.4-2.2 0-3.9 1.6-3.9 4s1.7 4 3.8 4c2.1 0 3.4-1.2 3.5-3.2h-3.1V477h4.3v.3c0 2.9-1.8 5.1-4.8 5.1-2.6 0-5-1.9-5-5 0-2.9 2.2-5 5.1-5 1.7-.1 3 .5 3.9 1.5z"/><path class="st0" d="M1039.5 589.5v2h-2"/><path class="st15" d="M1035.5 591.5h-142"/><path class="st0" d="M892.5 591.5h-2v-2"/><path class="st2" d="M890.5 587.5v-113"/><path class="st0" d="M890.5 473.5v-2h2"/><path class="st15" d="M894.5 471.5h142"/><path class="st0" d="M1037.5 471.5h2v2"/><path class="st2" d="M1039.5 475.5v113"/><path d="M950.1 608.4c0 2.7-1.8 4-4 4s-4-1.3-4-4v-6h1.1v5.9c0 2.1 1.2 3 2.9 3s2.9-.9 2.9-3v-5.9h1.1v6zM959.2 604.3c-.8-.5-1.8-.9-3-.9-1.5 0-2.5.7-2.5 1.8 0 .9.7 1.4 2.3 1.6l.9.1c1.6.2 3.1.9 3.1 2.6 0 1.9-1.8 2.9-3.9 2.9-1.4 0-2.9-.5-3.9-1.3l.6-.9c.7.6 2 1.1 3.2 1.1 1.5 0 2.7-.6 2.7-1.8 0-1-.8-1.4-2.4-1.6l-1-.1c-1.7-.2-2.9-1-2.9-2.6 0-1.9 1.7-2.9 3.7-2.9 1.5 0 2.6.4 3.5 1.1l-.4.9zM969.1 612.2h-6.9v-9.8h6.8v1.1h-5.7v3.3h5.5v1.1h-5.5v3.4h5.8v.9zM975.5 602.4c2.2 0 3.4 1 3.4 2.8 0 1.7-1.3 2.8-3.4 2.8h-.2l3.5 4.3h-1.4L974 608h-1.2v4.3h-1.1v-9.8h3.8zm-2.7 1.1v3.5h2.7c1.5 0 2.3-.6 2.3-1.8 0-1.1-.8-1.7-2.3-1.7h-2.7zM987.6 604.3c-.8-.5-1.8-.9-3-.9-1.5 0-2.5.7-2.5 1.8 0 .9.7 1.4 2.3 1.6l.9.1c1.6.2 3.1.9 3.1 2.6 0 1.9-1.8 2.9-3.9 2.9-1.4 0-2.9-.5-3.9-1.3l.6-.9c.7.6 2 1.1 3.2 1.1 1.5 0 2.7-.6 2.7-1.8 0-1-.8-1.4-2.4-1.6l-1-.1c-1.7-.2-2.9-1-2.9-2.6 0-1.9 1.7-2.9 3.7-2.9 1.5 0 2.6.4 3.5 1.1l-.4.9z"/><path class="st16" d="M450.5 322.2h5V337h-5zM444.5 322.3l-10.2 6.2c-.1.1-.3.1-.5 0l-10.2-6.2c-.2-.1-.5-.2-.7-.2-.8 0-1.4.6-1.4 1.4v13.4h5v-6.4c0-.4.4-.6.8-.4l5.7 3.5c.6.3 1.3.4 1.8 0l6.1-3.5c.3-.2.8 0 .8.4v6.4h5v-13.4c0-.8-.6-1.4-1.4-1.4-.4 0-.6.1-.8.2zM480.8 322.2h-5.1v6.8c0 .4-.4.6-.7.4l-13.2-7.1c-.2-.1-.4-.2-.7-.2-.8 0-1.4.6-1.4 1.4v13.4h5.1v-6.7c0-.4.4-.6.7-.4l13.3 7.1c.2.1.4.2.7.2.8 0 1.4-.6 1.4-1.4l-.1-13.5zM484.8 336.9v-14.8h2.3v14.8h-2.3zM500.7 337.3c-6.2 0-10.7-3-10.7-7.7s4.5-7.7 10.7-7.7c6.2 0 10.7 3 10.7 7.7s-4.4 7.7-10.7 7.7zm0-13.5c-4.6 0-8.2 2-8.2 5.7s3.6 5.7 8.2 5.7 8.2-2 8.2-5.7c0-3.6-3.6-5.7-8.2-5.7z"/><path d="M422.4 350.5c0 3.2-2.3 5.4-5.4 5.4-3.1 0-5.4-2.3-5.4-5.4 0-3.2 2.3-5.4 5.4-5.4 3.1 0 5.4 2.3 5.4 5.4zm-9.6 0c0 2.5 1.8 4.2 4.2 4.2 2.4 0 4.2-1.7 4.2-4.2s-1.8-4.2-4.2-4.2c-2.4 0-4.2 1.7-4.2 4.2zM431.9 352.2c0 2.1-1.6 3.7-3.6 3.7-1.2 0-2-.5-2.6-1.2v1.1h-1.1V345h1.1v4.8c.6-.7 1.4-1.2 2.6-1.2 2-.1 3.6 1.5 3.6 3.6zm-6.2 0c0 1.5 1 2.7 2.5 2.7s2.5-1.2 2.5-2.7c0-1.5-1-2.6-2.5-2.6s-2.5 1.1-2.5 2.6zM435.1 357c0 1.3-.7 1.9-1.8 1.9-.4 0-.8-.1-1-.2l.3-1c.2.1.4.1.7.1.5 0 .7-.3.7-.9v-8.2h1.1v8.3zm.2-10.9c0 .5-.4.8-.8.8-.5 0-.8-.3-.8-.8s.3-.8.8-.8c.5.1.8.4.8.8zM444.1 352.2v.4h-5.7c.2 1.5 1.2 2.3 2.5 2.3.9 0 1.6-.3 2.3-.9l.6.8c-.9.8-1.9 1.1-2.9 1.1-2.1 0-3.6-1.5-3.6-3.7s1.5-3.7 3.5-3.7c1.9 0 3.3 1.5 3.3 3.7zm-5.7-.5h4.6c-.1-1.3-1-2.2-2.2-2.2-1.4 0-2.3.9-2.4 2.2zM451.9 349.6l-.7.8c-.5-.5-1.2-.8-1.9-.8-1.4 0-2.5 1.1-2.5 2.6s1.1 2.7 2.5 2.7c.8 0 1.5-.3 2-.8l.7.8c-.6.7-1.6 1.1-2.6 1.1-2.2 0-3.7-1.6-3.7-3.7s1.5-3.7 3.7-3.7c.9-.1 1.9.3 2.5 1zM458.8 349.7h-3.1v3.6c0 1.1.6 1.6 1.4 1.6.5 0 1.1-.2 1.5-.5l.5.8c-.5.4-1.2.7-2.1.7-1.5 0-2.4-.8-2.4-2.6v-3.6H453v-1h1.6v-2.3h1.1v2.3h3.1v1zM471.8 347.3c-.8-.6-1.9-1-3.2-1-1.6 0-2.7.7-2.7 1.9 0 1 .8 1.5 2.4 1.7l1 .1c1.7.2 3.3.9 3.3 2.8 0 2.1-1.9 3.2-4.2 3.2-1.5 0-3.1-.5-4.1-1.4l.7-1c.7.6 2.1 1.2 3.5 1.2 1.6 0 2.9-.7 2.9-1.9 0-1-.9-1.5-2.5-1.7l-1.1-.1c-1.8-.2-3.1-1-3.1-2.8 0-2 1.8-3.1 4-3.1 1.6 0 2.8.5 3.8 1.1l-.7 1zM479.5 349.7h-3.1v3.6c0 1.1.6 1.6 1.4 1.6.5 0 1.1-.2 1.5-.5l.5.8c-.5.4-1.2.7-2.1.7-1.5 0-2.4-.8-2.4-2.6v-3.6h-1.6v-1h1.6v-2.3h1.1v2.3h3.1v1zM488.4 352.2c0 2.1-1.6 3.7-3.7 3.7s-3.7-1.6-3.7-3.7 1.6-3.7 3.7-3.7 3.7 1.6 3.7 3.7zm-6.3 0c0 1.5 1.1 2.7 2.6 2.7s2.6-1.1 2.6-2.7c0-1.5-1.1-2.6-2.6-2.6s-2.6 1.1-2.6 2.6zM495 348.8l-.3 1.1c-.3-.2-.8-.3-1.2-.3-1.1 0-1.9.9-1.9 2.2v4h-1.1v-7.1h1.1v1c.5-.7 1.2-1.1 2.1-1.1.5-.1 1 0 1.3.2zM503.2 355.8H502v-1.1c-.6.7-1.4 1.2-2.6 1.2-2 0-3.6-1.6-3.6-3.7s1.6-3.7 3.6-3.7c1.2 0 2 .5 2.6 1.2v-1.1h1.1v7.2zm-6.2-3.6c0 1.5 1 2.7 2.5 2.7s2.5-1.1 2.5-2.7c0-1.5-1.1-2.6-2.5-2.6-1.5 0-2.5 1.2-2.5 2.6zM511.3 349.7v-1.1h1.1v6.6c0 2.3-1.6 3.6-3.8 3.6-1.1 0-2.3-.4-3-1l.5-.9c.7.5 1.5.8 2.5.8 1.5 0 2.6-.9 2.6-2.5v-.7c-.5.7-1.4 1.2-2.5 1.2-2 0-3.5-1.5-3.5-3.6s1.5-3.6 3.5-3.6c1.2 0 2 .5 2.6 1.2zm-4.9 2.5c0 1.4 1 2.6 2.5 2.6s2.5-1.1 2.5-2.6-1-2.6-2.5-2.6-2.5 1.1-2.5 2.6zM521.4 352.2v.4h-5.7c.2 1.5 1.2 2.3 2.5 2.3.9 0 1.6-.3 2.3-.9l.6.8c-.9.8-1.9 1.1-2.9 1.1-2.1 0-3.6-1.5-3.6-3.7s1.5-3.7 3.5-3.7c1.9 0 3.2 1.5 3.3 3.7zm-5.7-.5h4.6c-.1-1.3-1-2.2-2.2-2.2-1.4 0-2.3.9-2.4 2.2z"/><path class="st17" d="M130.5 191.5v35c0 5.5 4.5 10 10 10h484c5.5 0 10-4.5 10-10v-35"/><path d="M298.5 191.5v35c0 5.5 4.5 10 10 10h158" style="fill:none;stroke:#000;stroke-width:.8595;stroke-miterlimit:10"/><path class="st17" d="M466.5 191.5v101.2"/><path class="st19" d="M802 321.8v19.4"/><path d="m802 320.8-3.5 6h6.9zM802 342.2l3.4-6h-6.9z"/><path class="st19" d="M723.5 401.5H649c-5.5 0-10-4.5-10-10v-44.9c0-5.5-4.5-10-10-10h-30.6"/><path d="m597.5 336.6 6 3.5v-7z"/><path class="st19" d="M965 471.5v-60c0-5.5-4.5-10-10-10h-74.5"/><path d="m879.8 401.5 6 3.4V398zM604.3 161h-1v4.5h-1.7V155h1.7v4.4h1l3.9-4.4h2.2l-4.7 5.1 5.1 5.4h-2.3l-4.2-4.5zM618.1 161.9v.6h-5.3c.2 1.3 1.1 1.8 2.1 1.8.7 0 1.5-.3 2.1-.8l.8 1.1c-.9.8-1.9 1-3 1-2.2 0-3.7-1.5-3.7-3.8s1.5-3.8 3.6-3.8c2 .1 3.4 1.6 3.4 3.9zm-5.4-.6h3.7c-.2-1.1-.8-1.8-1.8-1.8-1.1 0-1.7.7-1.9 1.8zM621 168.5h-1.7l2.6-4.5-3.2-5.7h1.8l2.3 4.1 2.2-4.1h1.7l-5.7 10.2zM637.5 157l-1.4.9c-.6-.9-1.7-1.5-2.9-1.5-2.1 0-3.7 1.6-3.7 3.8 0 2.3 1.6 3.8 3.7 3.8 1.2 0 2.3-.6 2.9-1.5l1.4 1c-.9 1.3-2.5 2.1-4.3 2.1-3.2 0-5.5-2.3-5.5-5.4 0-3.1 2.3-5.5 5.5-5.5 1.8.1 3.5.9 4.3 2.3zM641.1 165.5h-1.6v-10.8h1.6v10.8zM650.8 161.9c0 2.2-1.7 3.8-3.9 3.8s-3.9-1.6-3.9-3.8 1.6-3.8 3.9-3.8c2.2 0 3.9 1.6 3.9 3.8zm-6.2 0c0 1.4 1 2.3 2.3 2.3 1.3 0 2.3-.9 2.3-2.3s-1-2.3-2.3-2.3c-1.3 0-2.3.9-2.3 2.3zM659.6 165.5H658v-.9c-.5.6-1.2 1.1-2.3 1.1-2 0-3.6-1.6-3.6-3.8s1.6-3.8 3.6-3.8c1 0 1.8.4 2.3 1.1v-.9h1.6v7.2zm-5.8-3.6c0 1.3.8 2.3 2.2 2.3 1.3 0 2.2-1 2.2-2.3s-.9-2.3-2.2-2.3c-1.4 0-2.2 1-2.2 2.3zM663.6 161h.8l2.4-2.7h2l-3 3.4 3 3.8h-2l-2.4-3h-.8v3H662v-10.8h1.6v6.3zM73.1 159.4h5.7V155h1.7v10.5h-1.7V161h-5.7v4.5h-1.7V155h1.7v4.4zM90 165.5h-1.6v-.9c-.5.6-1.2 1.1-2.3 1.1-2 0-3.6-1.6-3.6-3.8s1.6-3.8 3.6-3.8c1 0 1.8.4 2.3 1.1v-.9H90v7.2zm-5.8-3.6c0 1.3.8 2.3 2.2 2.3 1.3 0 2.2-1 2.2-2.3s-.9-2.3-2.2-2.3c-1.4 0-2.2 1-2.2 2.3zM97.4 160.1c-.4-.3-1.3-.6-2.2-.6-.9 0-1.4.3-1.4.9 0 .5.5.6 1.2.7l.7.1c1.6.2 2.5.9 2.5 2.1 0 1.4-1.2 2.4-3.3 2.4-.7 0-2-.1-3.1-.9l.7-1.2c.5.4 1.2.7 2.4.7 1.1 0 1.6-.3 1.6-.9 0-.4-.4-.7-1.2-.8l-.8-.1c-1.6-.2-2.4-1-2.4-2.1 0-1.4 1.1-2.3 3-2.3 1.1 0 2.2.3 2.9.8l-.6 1.2zM101.7 159.2c.6-.8 1.5-1 2.2-1 1.7 0 2.9 1.2 2.9 2.9v4.5h-1.6v-4c0-1.2-.6-1.9-1.7-1.9-1 0-1.9.7-1.9 1.9v4H100v-10.8h1.6c.1-.1.1 4.4.1 4.4zM111 155.8c0 .6-.5 1.1-1.1 1.1s-1.1-.5-1.1-1.1.5-1.1 1.1-1.1 1.1.5 1.1 1.1zm-.3 9.7h-1.6v-7.2h1.6v7.2zM122.7 157l-1.4.9c-.6-.9-1.7-1.5-2.9-1.5-2.1 0-3.7 1.6-3.7 3.8 0 2.3 1.6 3.8 3.7 3.8 1.2 0 2.3-.6 2.9-1.5l1.4 1c-.9 1.3-2.5 2.1-4.3 2.1-3.2 0-5.5-2.3-5.5-5.4 0-3.1 2.3-5.5 5.5-5.5 1.8.1 3.4.9 4.3 2.3zM131.7 161.9c0 2.2-1.7 3.8-3.9 3.8s-3.9-1.6-3.9-3.8 1.6-3.8 3.9-3.8 3.9 1.6 3.9 3.8zm-6.1 0c0 1.4 1 2.3 2.3 2.3 1.3 0 2.3-.9 2.3-2.3s-1-2.3-2.3-2.3c-1.3 0-2.3.9-2.3 2.3zM138.5 158.3l-.4 1.6c-.3-.2-.8-.3-1.2-.3-1 0-1.7.7-1.7 1.9v4h-1.6v-7.2h1.6v.8c.5-.7 1.2-1 2.1-1 .5 0 .9.1 1.2.2zM147.5 161.9c0 2.2-1.6 3.8-3.6 3.8-1 0-1.8-.4-2.3-1v3.9H140v-10.2h1.6v.9c.5-.6 1.2-1 2.3-1 2-.2 3.6 1.4 3.6 3.6zm-5.9 0c0 1.3.9 2.3 2.2 2.3 1.4 0 2.2-1 2.2-2.3s-.8-2.3-2.2-2.3c-1.3 0-2.2 1-2.2 2.3zM158.5 165.5h-2.1l-4-10.5h1.8l3.3 8.8 3.3-8.8h1.8l-4.1 10.5zM169.9 165.5h-1.6v-.9c-.5.6-1.2 1.1-2.3 1.1-2 0-3.6-1.6-3.6-3.8s1.6-3.8 3.6-3.8c1 0 1.8.4 2.3 1.1v-.9h1.6v7.2zm-5.8-3.6c0 1.3.8 2.3 2.2 2.3 1.3 0 2.2-1 2.2-2.3s-.9-2.3-2.2-2.3c-1.4 0-2.2 1-2.2 2.3zM179 162.4c0 2.3-1.7 3.2-3.3 3.2-1.7 0-3.3-.9-3.3-3.2v-4.1h1.6v4c0 1.4.8 1.9 1.8 1.9s1.8-.5 1.8-1.9v-4h1.6v4.1zM182.9 165.5h-1.6v-10.8h1.6v10.8zM190.3 159.7h-2.8v3.1c0 1 .5 1.3 1.1 1.3.5 0 1-.2 1.4-.5l.6 1.3c-.6.4-1.3.7-2.2.7-1.6 0-2.6-.9-2.6-2.8v-3.2h-1.4v-1.4h1.4V156h1.6v2.2h2.8v1.5zM261.7 165.5H254V155h7.6v1.6h-5.9v2.8h5.7v1.6h-5.7v2.9h6v1.6zM265.7 165.5h-1.6v-10.8h1.6v10.8zM275 165.5h-1.6v-.9c-.5.6-1.2 1.1-2.3 1.1-2 0-3.6-1.6-3.6-3.8s1.6-3.8 3.6-3.8c1 0 1.8.4 2.3 1.1v-.9h1.6v7.2zm-5.8-3.6c0 1.3.8 2.3 2.2 2.3 1.3 0 2.2-1 2.2-2.3s-.9-2.3-2.2-2.3c-1.3 0-2.2 1-2.2 2.3zM282.4 160.1c-.4-.3-1.3-.6-2.2-.6-.9 0-1.4.3-1.4.9 0 .5.5.6 1.2.7l.7.1c1.6.2 2.5.9 2.5 2.1 0 1.4-1.2 2.4-3.3 2.4-.7 0-2-.1-3.1-.9l.7-1.2c.5.4 1.2.7 2.4.7 1.1 0 1.6-.3 1.6-.9 0-.4-.4-.7-1.2-.8l-.8-.1c-1.6-.2-2.4-1-2.4-2.1 0-1.4 1.1-2.3 3-2.3 1.1 0 2.2.3 2.9.8l-.6 1.2zM290 159.7h-2.8v3.1c0 1 .5 1.3 1.1 1.3.5 0 1-.2 1.4-.5l.6 1.3c-.6.4-1.3.7-2.2.7-1.6 0-2.6-.9-2.6-2.8v-3.2h-1.4v-1.4h1.4V156h1.6v2.2h2.8v1.5zM293.8 155.8c0 .6-.5 1.1-1.1 1.1s-1.1-.5-1.1-1.1.5-1.1 1.1-1.1 1.1.5 1.1 1.1zm-.3 9.7h-1.6v-7.2h1.6v7.2zM301.9 159.3l-1 1.1c-.5-.5-1-.7-1.7-.7-1.2 0-2.1.9-2.1 2.3s.9 2.3 2.1 2.3c.7 0 1.3-.3 1.8-.8l1 1.1c-.7.8-1.6 1.1-2.7 1.1-2.3 0-3.8-1.6-3.8-3.8s1.5-3.8 3.8-3.8c1 0 1.9.4 2.6 1.2zM310.7 157.3c-.9-.6-1.9-.9-3-.9-1.4 0-2.4.6-2.4 1.6 0 .9.8 1.2 2.2 1.4l.7.1c1.7.2 3.4.9 3.4 2.9 0 2.1-1.9 3.3-4.2 3.3-1.4 0-3.1-.5-4.2-1.4l.9-1.4c.7.7 2.1 1.2 3.3 1.2 1.4 0 2.5-.6 2.5-1.6 0-.8-.8-1.2-2.4-1.4l-.8-.1c-1.6-.2-3.1-1-3.1-2.9 0-2.1 1.9-3.3 4.1-3.3 1.5 0 2.7.4 3.8 1.1l-.8 1.4zM318.6 159.7h-2.8v3.1c0 1 .5 1.3 1.1 1.3.5 0 1-.2 1.4-.5l.6 1.3c-.6.4-1.3.7-2.2.7-1.6 0-2.6-.9-2.6-2.8v-3.2h-1.4v-1.4h1.4V156h1.6v2.2h2.8v1.5zM327.4 165.5h-1.6v-.9c-.5.6-1.2 1.1-2.3 1.1-2 0-3.6-1.6-3.6-3.8s1.6-3.8 3.6-3.8c1 0 1.8.4 2.3 1.1v-.9h1.6v7.2zm-5.8-3.6c0 1.3.8 2.3 2.2 2.3 1.3 0 2.2-1 2.2-2.3s-.9-2.3-2.2-2.3c-1.4 0-2.2 1-2.2 2.3zM335.8 159.3l-1 1.1c-.5-.5-1-.7-1.7-.7-1.2 0-2.1.9-2.1 2.3s.9 2.3 2.1 2.3c.7 0 1.3-.3 1.8-.8l1 1.1c-.7.8-1.6 1.1-2.7 1.1-2.3 0-3.8-1.6-3.8-3.8s1.5-3.8 3.8-3.8c1 0 1.9.4 2.6 1.2zM339.1 161h.8l2.4-2.7h2l-3 3.4 3 3.8h-2l-2.4-3h-.8v3h-1.6v-10.8h1.6v6.3zM446.1 156.5l-1.2 1.2c-.7-.8-1.7-1.3-2.8-1.3-2.1 0-3.7 1.6-3.7 3.8 0 2.3 1.6 3.8 3.6 3.8 1.9 0 3-1 3.3-2.7h-2.8v-1.6h4.6v.4c0 3-1.9 5.5-5.2 5.5-2.7 0-5.4-1.9-5.4-5.4 0-3.2 2.3-5.5 5.5-5.5 1.7.1 3.1.7 4.1 1.8zM454 158.3l-.4 1.6c-.3-.2-.8-.3-1.2-.3-1 0-1.7.7-1.7 1.9v4h-1.6v-7.2h1.6v.8c.5-.7 1.2-1 2.1-1 .5 0 .8.1 1.2.2zM462.2 165.5h-1.6v-.9c-.5.6-1.2 1.1-2.3 1.1-2 0-3.6-1.6-3.6-3.8s1.6-3.8 3.6-3.8c1 0 1.8.4 2.3 1.1v-.9h1.6v7.2zm-5.8-3.6c0 1.3.8 2.3 2.2 2.3 1.3 0 2.2-1 2.2-2.3s-.9-2.3-2.2-2.3c-1.4 0-2.2 1-2.2 2.3zM469.3 159.7h-2.5v5.8h-1.6v-5.8h-1.4v-1.4h1.4v-1.2c0-1.4.7-2.6 2.4-2.6.8 0 1.5.2 2 .5l-.6 1.3c-.4-.2-.9-.4-1.3-.4-.6 0-.9.4-.9 1.1v1.2h2.5v1.5zM477.7 165.5h-1.6v-.9c-.5.6-1.2 1.1-2.3 1.1-2 0-3.6-1.6-3.6-3.8s1.6-3.8 3.6-3.8c1 0 1.8.4 2.3 1.1v-.9h1.6v7.2zm-5.8-3.6c0 1.3.8 2.3 2.2 2.3 1.3 0 2.2-1 2.2-2.3s-.9-2.3-2.2-2.3c-1.4 0-2.2 1-2.2 2.3zM486.8 161v4.5h-1.6v-4c0-1.2-.6-1.9-1.7-1.9-1 0-1.9.7-1.9 1.9v4H480v-7.2h1.6v.9c.6-.8 1.5-1.1 2.2-1.1 1.8 0 3 1.2 3 2.9zM496.1 165.5h-1.6v-.9c-.5.6-1.2 1.1-2.3 1.1-2 0-3.6-1.6-3.6-3.8s1.6-3.8 3.6-3.8c1 0 1.8.4 2.3 1.1v-.9h1.6v7.2zm-5.8-3.6c0 1.3.8 2.3 2.2 2.3 1.3 0 2.2-1 2.2-2.3s-.9-2.3-2.2-2.3c-1.4 0-2.2 1-2.2 2.3zM762.4 296.5h-7.5V286h1.7v8.9h5.8v1.6zM770.3 292.9v.6H765c.2 1.3 1.1 1.8 2.1 1.8.7 0 1.5-.3 2.1-.8l.8 1.1c-.9.8-1.9 1-3 1-2.2 0-3.7-1.5-3.7-3.8s1.5-3.8 3.6-3.8c2.1.1 3.4 1.6 3.4 3.9zm-5.3-.6h3.7c-.2-1.1-.8-1.8-1.8-1.8-1.1 0-1.7.7-1.9 1.8zM777.1 290.7h-2.8v3.1c0 1 .5 1.3 1.1 1.3.5 0 1-.2 1.4-.5l.6 1.3c-.6.4-1.3.7-2.2.7-1.6 0-2.6-.9-2.6-2.8v-3.2h-1.4v-1.4h1.4V287h1.6v2.2h2.8v1.5zM780.8 285.7l-.9 4.1h-1.4l.4-4.1h1.9zM786.9 291.1c-.4-.3-1.3-.6-2.2-.6-.9 0-1.4.3-1.4.9 0 .5.5.6 1.2.7l.7.1c1.6.2 2.5.9 2.5 2.1 0 1.4-1.2 2.4-3.3 2.4-.7 0-2-.1-3.1-.9l.7-1.2c.5.4 1.2.7 2.4.7 1.1 0 1.6-.3 1.6-.9 0-.4-.4-.7-1.2-.8l-.8-.1c-1.6-.2-2.4-1-2.4-2.1 0-1.4 1.1-2.3 3-2.3 1.1 0 2.2.3 2.9.8l-.6 1.2zM801.5 296.5h-7.7V286h7.6v1.6h-5.9v2.8h5.7v1.6h-5.7v2.9h6v1.6zM810.5 292v4.5h-1.6v-4c0-1.2-.6-1.9-1.7-1.9-1 0-1.9.7-1.9 1.9v4h-1.6v-7.2h1.6v.9c.6-.8 1.5-1.1 2.2-1.1 1.8 0 3 1.2 3 2.9zM818.9 290.3l-1 1.1c-.5-.5-1-.7-1.7-.7-1.2 0-2.1.9-2.1 2.3s.9 2.3 2.1 2.3c.7 0 1.3-.3 1.8-.8l1 1.1c-.7.8-1.6 1.1-2.7 1.1-2.3 0-3.8-1.6-3.8-3.8s1.5-3.8 3.8-3.8c.9 0 1.9.4 2.6 1.2zM825.5 289.3l-.4 1.6c-.3-.2-.8-.3-1.2-.3-1 0-1.7.7-1.7 1.9v4h-1.6v-7.2h1.6v.8c.5-.7 1.2-1 2.1-1 .4 0 .8.1 1.2.2zM828.7 299.5H827l2.6-4.5-3.2-5.7h1.8l2.3 4.1 2.2-4.1h1.7l-5.7 10.2zM843.1 292.9c0 2.2-1.6 3.8-3.6 3.8-1 0-1.8-.4-2.3-1v3.9h-1.6v-10.2h1.6v.9c.5-.6 1.2-1 2.3-1 2-.2 3.6 1.4 3.6 3.6zm-6 0c0 1.3.9 2.3 2.2 2.3 1.4 0 2.2-1 2.2-2.3s-.8-2.3-2.2-2.3c-1.3 0-2.2 1-2.2 2.3zM849.8 290.7H847v3.1c0 1 .5 1.3 1.1 1.3.5 0 1-.2 1.4-.5l.6 1.3c-.6.4-1.3.7-2.2.7-1.6 0-2.6-.9-2.6-2.8v-3.2h-1.4v-1.4h1.4V287h1.6v2.2h2.8v1.5zM763.1 426.5h-1.5l-5.9-7.6v7.6H754V416h1.5l5.9 7.6V416h1.7v10.5zM771 420.2v-.9h1.6v6.7c0 2.3-1.5 3.6-3.9 3.6-1.1 0-2.3-.3-3-.8l.6-1.3c.7.4 1.6.7 2.4.7 1.5 0 2.3-.8 2.3-2.1v-.6c-.5.7-1.4 1.1-2.4 1.1-1.6 0-3.3-1.4-3.3-3.7s1.7-3.7 3.3-3.7c1-.1 1.8.3 2.4 1zm-4.1 2.6c0 1.2.8 2.2 2.1 2.2s2.1-1 2.1-2.2c0-1.3-.9-2.2-2.1-2.2-1.4 0-2.1 1-2.1 2.2zM776.9 416.8c0 .6-.5 1.1-1.1 1.1-.6 0-1.1-.5-1.1-1.1s.5-1.1 1.1-1.1c.6 0 1.1.5 1.1 1.1zm-.3 9.7H775v-7.2h1.6v7.2zM785.7 422v4.5h-1.6v-4c0-1.2-.6-1.9-1.7-1.9-1 0-1.9.7-1.9 1.9v4H779v-7.2h1.6v.9c.6-.8 1.5-1.1 2.2-1.1 1.7 0 2.9 1.2 2.9 2.9zM791.8 422.8l2.7 3.7h-1.9l-1.8-2.5-1.8 2.5h-1.8l2.7-3.7-2.7-3.5h1.9l1.7 2.4 1.8-2.4h1.9l-2.7 3.5zM801.9 426.5h-1.7V416h1.7v10.5zM811.3 422v4.5h-1.6v-4c0-1.2-.6-1.9-1.7-1.9-1 0-1.9.7-1.9 1.9v4h-1.6v-7.2h1.6v.9c.6-.8 1.5-1.1 2.2-1.1 1.8 0 3 1.2 3 2.9zM818.9 420.2v-.9h1.6v6.7c0 2.3-1.5 3.6-3.9 3.6-1.1 0-2.3-.3-3-.8l.6-1.3c.7.4 1.6.7 2.4.7 1.5 0 2.3-.8 2.3-2.1v-.6c-.5.7-1.4 1.1-2.4 1.1-1.6 0-3.3-1.4-3.3-3.7s1.7-3.7 3.3-3.7c1-.1 1.8.3 2.4 1zm-4.2 2.6c0 1.2.8 2.2 2.1 2.2s2.1-1 2.1-2.2c0-1.3-.9-2.2-2.1-2.2-1.3 0-2.1 1-2.1 2.2zM827.7 419.3l-.4 1.6c-.3-.2-.8-.3-1.2-.3-1 0-1.7.7-1.7 1.9v4h-1.6v-7.2h1.6v.8c.5-.7 1.2-1 2.1-1 .5 0 .9.1 1.2.2zM835.5 422.9v.6h-5.3c.2 1.3 1.1 1.8 2.1 1.8.7 0 1.5-.3 2.1-.8l.8 1.1c-.9.8-1.9 1-3 1-2.2 0-3.7-1.5-3.7-3.8s1.5-3.8 3.6-3.8c2 .1 3.4 1.6 3.4 3.9zm-5.3-.6h3.7c-.2-1.1-.8-1.8-1.8-1.8-1.2 0-1.8.7-1.9 1.8zM842.3 421.1c-.4-.3-1.3-.6-2.2-.6-.9 0-1.4.3-1.4.9 0 .5.5.6 1.2.7l.7.1c1.6.2 2.5.9 2.5 2.1 0 1.4-1.2 2.4-3.3 2.4-.7 0-2-.1-3.1-.9l.7-1.2c.5.4 1.2.7 2.4.7 1.1 0 1.6-.3 1.6-.9 0-.4-.4-.7-1.2-.8l-.8-.1c-1.6-.2-2.4-1-2.4-2.1 0-1.4 1.1-2.3 3-2.3 1.1 0 2.2.3 2.9.8l-.6 1.2zM849.9 421.1c-.4-.3-1.3-.6-2.2-.6-.9 0-1.4.3-1.4.9 0 .5.5.6 1.2.7l.7.1c1.6.2 2.5.9 2.5 2.1 0 1.4-1.2 2.4-3.3 2.4-.7 0-2-.1-3.1-.9l.7-1.2c.5.4 1.2.7 2.4.7 1.1 0 1.6-.3 1.6-.9 0-.4-.4-.7-1.2-.8l-.8-.1c-1.6-.2-2.4-1-2.4-2.1 0-1.4 1.1-2.3 3-2.3 1.1 0 2.2.3 2.9.8l-.6 1.2zM775.5 436l-1.4.9c-.6-.9-1.7-1.5-2.9-1.5-2.1 0-3.7 1.6-3.7 3.8 0 2.3 1.6 3.8 3.7 3.8 1.2 0 2.3-.6 2.9-1.5l1.4 1c-.9 1.3-2.5 2.1-4.3 2.1-3.2 0-5.5-2.3-5.5-5.5 0-3.1 2.3-5.5 5.5-5.5 1.8.2 3.5 1 4.3 2.4zM784.6 440.9c0 2.2-1.7 3.8-3.9 3.8s-3.9-1.6-3.9-3.8c0-2.2 1.6-3.8 3.9-3.8s3.9 1.6 3.9 3.8zm-6.1 0c0 1.4 1 2.3 2.3 2.3s2.3-.9 2.3-2.3-1-2.3-2.3-2.3-2.3.9-2.3 2.3zM793.2 440v4.5h-1.6v-4c0-1.2-.6-1.9-1.7-1.9-1 0-1.9.7-1.9 1.9v4h-1.6v-7.2h1.6v.9c.6-.8 1.5-1.1 2.2-1.1 1.8 0 3 1.2 3 2.9zM800.4 438.7h-2.8v3.1c0 1 .5 1.3 1.1 1.3.5 0 1-.2 1.4-.5l.6 1.3c-.6.4-1.3.7-2.2.7-1.6 0-2.6-.9-2.6-2.8v-3.2h-1.4v-1.4h1.4V435h1.6v2.2h2.8v1.5zM807.2 437.3l-.4 1.6c-.3-.2-.8-.3-1.2-.3-1 0-1.7.7-1.7 1.9v4h-1.6v-7.2h1.6v.8c.5-.7 1.2-1 2.1-1 .4 0 .8.1 1.2.2zM815.7 440.9c0 2.2-1.7 3.8-3.9 3.8s-3.9-1.6-3.9-3.8c0-2.2 1.6-3.8 3.9-3.8s3.9 1.6 3.9 3.8zm-6.1 0c0 1.4 1 2.3 2.3 2.3s2.3-.9 2.3-2.3-1-2.3-2.3-2.3-2.3.9-2.3 2.3zM819.2 444.5h-1.6v-10.8h1.6v10.8zM823.2 444.5h-1.6v-10.8h1.6v10.8zM832.2 440.9v.6h-5.3c.2 1.3 1.1 1.8 2.1 1.8.7 0 1.5-.3 2.1-.8l.8 1.1c-.9.8-1.9 1-3 1-2.2 0-3.7-1.5-3.7-3.8s1.5-3.8 3.6-3.8c2 .1 3.3 1.6 3.4 3.9zm-5.4-.6h3.7c-.2-1.1-.8-1.8-1.8-1.8-1.1 0-1.7.7-1.9 1.8zM838.9 437.3l-.4 1.6c-.3-.2-.8-.3-1.2-.3-1 0-1.7.7-1.7 1.9v4H834v-7.2h1.6v.8c.5-.7 1.2-1 2.1-1 .5 0 .9.1 1.2.2zM360 415.7c3.3 0 5.5 2.1 5.5 5.3s-2.2 5.3-5.5 5.3h-4.2v-10.5h4.2zm-2.4 1.6v7.3h2.5c2.5 0 3.7-1.5 3.7-3.6s-1.2-3.6-3.7-3.6h-2.5zM369.5 416.5c0 .6-.5 1.1-1.1 1.1s-1.1-.5-1.1-1.1.5-1.1 1.1-1.1 1.1.5 1.1 1.1zm-.3 9.7h-1.6V419h1.6v7.2zM376.5 419l-.4 1.6c-.3-.2-.8-.3-1.2-.3-1 0-1.7.7-1.7 1.9v4h-1.6V419h1.6v.8c.5-.7 1.2-1 2.1-1 .4 0 .8.1 1.2.2zM384.2 422.6v.6h-5.3c.2 1.3 1.1 1.8 2.1 1.8.7 0 1.5-.3 2.1-.8l.8 1.1c-.9.8-1.9 1-3 1-2.2 0-3.7-1.5-3.7-3.8s1.5-3.8 3.6-3.8c2 .1 3.4 1.7 3.4 3.9zm-5.3-.6h3.7c-.2-1.1-.8-1.8-1.8-1.8-1.1 0-1.8.7-1.9 1.8zM392.1 420l-1 1.1c-.5-.5-1-.7-1.7-.7-1.2 0-2.1.9-2.1 2.3s.9 2.3 2.1 2.3c.7 0 1.3-.3 1.8-.8l1 1.1c-.7.8-1.6 1.1-2.7 1.1-2.3 0-3.8-1.6-3.8-3.8 0-2.2 1.5-3.8 3.8-3.8 1 0 2 .4 2.6 1.2zM398.8 420.4H396v3.1c0 1 .5 1.3 1.1 1.3.5 0 1-.2 1.4-.5l.6 1.3c-.6.4-1.3.7-2.2.7-1.6 0-2.6-.9-2.6-2.8v-3.2h-1.4V419h1.4v-2.2h1.6v2.2h2.8v1.4zM402.6 422.1v4.1h-1.7v-10.5h4.1c2.4 0 3.7 1.2 3.7 3.2s-1.3 3.2-3.7 3.2h-2.4zm0-4.8v3.2h2.3c1.4 0 2-.5 2-1.6s-.6-1.6-2-1.6h-2.3zM415.8 426.2h-2.1l-4-10.5h1.8l3.3 8.8 3.3-8.8h1.8l-4.1 10.5zM434.4 426.2h-1.5l-5.9-7.6v7.6h-1.7v-10.5h1.5l5.9 7.6v-7.6h1.7v10.5zM442.2 426.2H440l-4-10.5h1.8l3.3 8.8 3.3-8.8h1.8l-4 10.5zM459.1 426.2h-1.7v-8.6l-3.1 7.6h-1.8l-3.1-7.5v8.6h-1.7v-10.5h2.6l3.1 7.5 3.1-7.5h2.6v10.4zM468.2 422.6v.6h-5.3c.2 1.3 1.1 1.8 2.1 1.8.7 0 1.5-.3 2.1-.8l.8 1.1c-.9.8-1.9 1-3 1-2.2 0-3.7-1.5-3.7-3.8s1.5-3.8 3.6-3.8c2.1.1 3.4 1.7 3.4 3.9zm-5.3-.6h3.7c-.2-1.1-.8-1.8-1.8-1.8-1.1 0-1.7.7-1.9 1.8zM360 485.7c3.3 0 5.5 2.1 5.5 5.3s-2.2 5.3-5.5 5.3h-4.2v-10.5h4.2zm-2.4 1.6v7.3h2.5c2.5 0 3.7-1.5 3.7-3.6s-1.2-3.6-3.7-3.6h-2.5zM369.5 486.5c0 .6-.5 1.1-1.1 1.1s-1.1-.5-1.1-1.1.5-1.1 1.1-1.1 1.1.5 1.1 1.1zm-.3 9.7h-1.6V489h1.6v7.2zM376.5 489l-.4 1.6c-.3-.2-.8-.3-1.2-.3-1 0-1.7.7-1.7 1.9v4h-1.6V489h1.6v.8c.5-.7 1.2-1 2.1-1 .4 0 .8.1 1.2.2zM384.2 492.6v.6h-5.3c.2 1.3 1.1 1.8 2.1 1.8.7 0 1.5-.3 2.1-.8l.8 1.1c-.9.8-1.9 1-3 1-2.2 0-3.7-1.5-3.7-3.8s1.5-3.8 3.6-3.8c2 .1 3.4 1.7 3.4 3.9zm-5.3-.6h3.7c-.2-1.1-.8-1.8-1.8-1.8-1.1 0-1.8.7-1.9 1.8zM392.1 490l-1 1.1c-.5-.5-1-.7-1.7-.7-1.2 0-2.1.9-2.1 2.3s.9 2.3 2.1 2.3c.7 0 1.3-.3 1.8-.8l1 1.1c-.7.8-1.6 1.1-2.7 1.1-2.3 0-3.8-1.6-3.8-3.8 0-2.2 1.5-3.8 3.8-3.8 1 0 2 .4 2.6 1.2zM398.8 490.4H396v3.1c0 1 .5 1.3 1.1 1.3.5 0 1-.2 1.4-.5l.6 1.3c-.6.4-1.3.7-2.2.7-1.6 0-2.6-.9-2.6-2.8v-3.2h-1.4V489h1.4v-2.2h1.6v2.2h2.8v1.4zM402.6 492.1v4.1h-1.7v-10.5h4.1c2.4 0 3.7 1.2 3.7 3.2s-1.3 3.2-3.7 3.2h-2.4zm0-4.8v3.2h2.3c1.4 0 2-.5 2-1.6s-.6-1.6-2-1.6h-2.3zM415.8 496.2h-2.1l-4-10.5h1.8l3.3 8.8 3.3-8.8h1.8l-4.1 10.5zM427 490.1h5.7v-4.4h1.7v10.5h-1.7v-4.5H427v4.5h-1.7v-10.5h1.7v4.4zM441.4 485.7c3.3 0 5.5 2.1 5.5 5.3s-2.2 5.3-5.5 5.3h-4.2v-10.5h4.2zm-2.5 1.6v7.3h2.5c2.5 0 3.7-1.5 3.7-3.6s-1.2-3.6-3.7-3.6h-2.5zM453.3 485.7c3.3 0 5.5 2.1 5.5 5.3s-2.2 5.3-5.5 5.3h-4.2v-10.5h4.2zm-2.5 1.6v7.3h2.5c2.5 0 3.7-1.5 3.7-3.6s-1.2-3.6-3.7-3.6h-2.5zM357.6 572.1v4.1h-1.7v-10.5h4.1c2.4 0 3.7 1.2 3.7 3.2s-1.3 3.2-3.7 3.2h-2.4zm0-4.8v3.2h2.3c1.4 0 2-.5 2-1.6s-.6-1.6-2-1.6h-2.3zM372.2 573.2c0 2.3-1.7 3.2-3.3 3.2-1.7 0-3.3-.9-3.3-3.2V569h1.6v4c0 1.4.8 1.9 1.8 1.9s1.8-.5 1.8-1.9v-4h1.6v4.2zM382 572.6c0 2.2-1.6 3.8-3.6 3.8-1 0-1.8-.4-2.3-1v.9h-1.6v-10.8h1.6v4.5c.5-.6 1.2-1 2.3-1 2-.2 3.6 1.4 3.6 3.6zm-6 0c0 1.3.9 2.3 2.2 2.3 1.4 0 2.2-1 2.2-2.3 0-1.3-.8-2.3-2.2-2.3-1.3 0-2.2 1-2.2 2.3zM385.5 576.2h-1.6v-10.8h1.6v10.8zM389.9 566.5c0 .6-.5 1.1-1.1 1.1s-1.1-.5-1.1-1.1.5-1.1 1.1-1.1 1.1.5 1.1 1.1zm-.4 9.7H388V569h1.6v7.2zM397.9 570l-1 1.1c-.5-.5-1-.7-1.7-.7-1.2 0-2.1.9-2.1 2.3s.9 2.3 2.1 2.3c.7 0 1.3-.3 1.8-.8l1 1.1c-.7.8-1.6 1.1-2.7 1.1-2.3 0-3.8-1.6-3.8-3.8 0-2.2 1.5-3.8 3.8-3.8 1 0 2 .4 2.6 1.2zM413.2 567.7l-1.4.9c-.6-.9-1.7-1.5-2.9-1.5-2.1 0-3.7 1.6-3.7 3.8s1.6 3.8 3.7 3.8c1.2 0 2.3-.6 2.9-1.5l1.4 1c-.9 1.3-2.5 2.1-4.3 2.1-3.2 0-5.5-2.3-5.5-5.5s2.3-5.4 5.5-5.4c1.8.1 3.5.9 4.3 2.3zM416.8 576.2h-1.6v-10.8h1.6v10.8zM426.5 572.6c0 2.2-1.7 3.8-3.9 3.8s-3.9-1.6-3.9-3.8c0-2.2 1.6-3.8 3.9-3.8 2.2 0 3.9 1.7 3.9 3.8zm-6.1 0c0 1.4 1 2.3 2.3 2.3 1.3 0 2.3-.9 2.3-2.3s-1-2.3-2.3-2.3c-1.4 0-2.3 1-2.3 2.3zM435 573.2c0 2.3-1.7 3.2-3.3 3.2-1.7 0-3.3-.9-3.3-3.2V569h1.6v4c0 1.4.8 1.9 1.8 1.9s1.8-.5 1.8-1.9v-4h1.6v4.2zM442.7 569.9v-4.5h1.6v10.8h-1.6v-.9c-.5.6-1.2 1.1-2.3 1.1-2 0-3.6-1.6-3.6-3.8 0-2.2 1.6-3.8 3.6-3.8 1.1 0 1.8.4 2.3 1.1zm-4.2 2.7c0 1.3.8 2.3 2.2 2.3 1.3 0 2.2-1 2.2-2.3 0-1.3-.9-2.3-2.2-2.3-1.4 0-2.2 1-2.2 2.3zM457.9 568c-.9-.6-1.9-.9-3-.9-1.4 0-2.4.6-2.4 1.6 0 .9.8 1.2 2.2 1.4l.7.1c1.7.2 3.4.9 3.4 2.9 0 2.1-1.9 3.3-4.2 3.3-1.4 0-3.1-.5-4.2-1.4l.9-1.4c.7.7 2.1 1.2 3.3 1.2 1.4 0 2.5-.6 2.5-1.6 0-.8-.8-1.2-2.4-1.4l-.8-.1c-1.6-.2-3.1-1-3.1-2.9 0-2.1 1.9-3.3 4.1-3.3 1.5 0 2.7.4 3.8 1.1l-.8 1.4zM465.7 570.4H463v3.1c0 1 .5 1.3 1.1 1.3.5 0 1-.2 1.4-.5l.6 1.3c-.6.4-1.3.7-2.2.7-1.6 0-2.6-.9-2.6-2.8v-3.2H460V569h1.4v-2.2h1.6v2.2h2.8v1.4zM474.9 572.6c0 2.2-1.7 3.8-3.9 3.8s-3.9-1.6-3.9-3.8c0-2.2 1.6-3.8 3.9-3.8 2.2 0 3.9 1.7 3.9 3.8zm-6.2 0c0 1.4 1 2.3 2.3 2.3 1.3 0 2.3-.9 2.3-2.3s-1-2.3-2.3-2.3c-1.3 0-2.3 1-2.3 2.3zM481.7 569l-.4 1.6c-.3-.2-.8-.3-1.2-.3-1 0-1.7.7-1.7 1.9v4h-1.6V569h1.6v.8c.5-.7 1.2-1 2.1-1 .4 0 .8.1 1.2.2zM489.9 576.2h-1.6v-.9c-.5.6-1.2 1.1-2.3 1.1-2 0-3.6-1.6-3.6-3.8 0-2.2 1.6-3.8 3.6-3.8 1 0 1.8.4 2.3 1.1v-.9h1.6v7.2zm-5.9-3.6c0 1.3.8 2.3 2.2 2.3 1.3 0 2.2-1 2.2-2.3 0-1.3-.9-2.3-2.2-2.3-1.3 0-2.2 1-2.2 2.3zM497.5 569.9v-.9h1.6v6.7c0 2.3-1.5 3.6-3.9 3.6-1.1 0-2.3-.3-3-.8l.6-1.3c.7.4 1.6.7 2.4.7 1.5 0 2.3-.8 2.3-2.1v-.6c-.5.7-1.4 1.1-2.4 1.1-1.6 0-3.3-1.4-3.3-3.7 0-2.3 1.7-3.7 3.3-3.7 1.1-.1 1.9.3 2.4 1zm-4.1 2.6c0 1.2.8 2.2 2.1 2.2s2.1-1 2.1-2.2-.9-2.2-2.1-2.2c-1.3 0-2.1 1-2.1 2.2zM508 572.6v.6h-5.3c.2 1.3 1.1 1.8 2.1 1.8.7 0 1.5-.3 2.1-.8l.8 1.1c-.9.8-1.9 1-3 1-2.2 0-3.7-1.5-3.7-3.8s1.5-3.8 3.6-3.8c2 .1 3.4 1.7 3.4 3.9zm-5.3-.6h3.7c-.2-1.1-.8-1.8-1.8-1.8-1.1 0-1.8.7-1.9 1.8z"/><path class="st20" d="M109.8 97.9h41.4L130.5 137z"/><circle class="st21" cx="127.3" cy="108.3" r=".8"/><circle class="st21" cx="134.6" cy="108.3" r=".8"/><circle class="st21" cx="131" cy="108.3" r=".8"/><circle class="st21" cx="127.3" cy="114.8" r=".8"/><circle class="st21" cx="134.6" cy="114.8" r=".8"/><circle class="st21" cx="131" cy="114.8" r=".8"/><circle class="st21" cx="127.3" cy="111.6" r=".8"/><circle class="st21" cx="134.6" cy="111.6" r=".8"/><circle class="st21" cx="131" cy="111.6" r=".8"/><circle class="st21" cx="131" cy="118" r=".8"/><path class="st21" d="M288.3 104.9h20.4c1.1 0 2 .9 2 2v4.6h-24.4v-4.6c0-1.1.9-2 2-2zM286.3 114.2h24.4v6.6h-24.4zM286.3 123.4h11.1v6.6h-9.1c-1.1 0-2-.9-2-2v-4.6zM299.6 123.4h11.1v4.6c0 1.1-.9 2-2 2h-9.1v-6.6z"/><path class="st22" d="M464.6 103v.1c-1.5.4-2.9 1.1-4.2 2-3.8-1.6-7.5.3-7.5.3-.3 4.2 1.6 6.8 1.9 7.3-.5 1.3-.8 2.7-1 4.1-3.6 1.8-4.7 5.4-4.7 5.4 3 3.5 6.5 3.7 6.5 3.7.6 1.1 1.4 2.2 2.3 3.1-1.1 3.1.2 5.8.2 5.8 3.4.1 5.6-1.5 6-1.8 1.8.6 3.6.9 5.5.8 1.6 2.3 4.4 2.6 4.4 2.6 2.2-2.3 2.1-4.5 2.1-4.8 1.4-.9 2.5-2.2 3.4-3.6 2.2.1 3.8-1.4 3.8-1.4-.4-2.5-1.9-3.7-2.1-3.8.7-5.9-3.9-11.2-9.9-10.9-2.9.1-5.6 2-6.7 4.7-1.4 3.1.1 7.2 3.5 8.1 1.2.3 2.4.3 3.5-.2.3-.2 1-.5.7-1-.2-.2-.4-.2-.6 0-.5.3-1.2.4-1.7.3-2.1-.1-3.9-2.1-3.7-4.2.6-5.8 7.9-5.9 10.3-1.2 2.4 4.9-2.1 10.9-7.5 10.6-5.6 0-10.5-5-10.3-10.5.2-6.6 4.3-11.6 11.1-11.8 6.2-.5 11.9 4.2 13.2 10.1.1.3.6.3.6-.1.1-3.6-1.5-7.3-4.2-9.9.5-2.1-.6-3.9-.6-3.9-2-.1-3.3.6-3.8 1-1.2-.5-2.5-.9-3.8-1.1-.9-2.8-3.4-4-3.4-4-2.8 1.7-3.3 4.2-3.3 4.2"/><defs><path id="SVGID_1_" d="M464.6 103v.1c-1.5.4-2.9 1.1-4.2 2-3.8-1.6-7.5.3-7.5.3-.3 4.2 1.6 6.8 1.9 7.3-.5 1.3-.8 2.7-1 4.1-3.6 1.8-4.7 5.4-4.7 5.4 3 3.5 6.5 3.7 6.5 3.7.6 1.1 1.4 2.2 2.3 3.1-1.1 3.1.2 5.8.2 5.8 3.4.1 5.6-1.5 6-1.8 1.8.6 3.6.9 5.5.8 1.6 2.3 4.4 2.6 4.4 2.6 2.2-2.3 2.1-4.5 2.1-4.8 1.4-.9 2.5-2.2 3.4-3.6 2.2.1 3.8-1.4 3.8-1.4-.4-2.5-1.9-3.7-2.1-3.8.7-5.9-3.9-11.2-9.9-10.9-2.9.1-5.6 2-6.7 4.7-1.4 3.1.1 7.2 3.5 8.1 1.2.3 2.4.3 3.5-.2.3-.2 1-.5.7-1-.2-.2-.4-.2-.6 0-.5.3-1.2.4-1.7.3-2.1-.1-3.9-2.1-3.7-4.2.6-5.8 7.9-5.9 10.3-1.2 2.4 4.9-2.1 10.9-7.5 10.6-5.6 0-10.5-5-10.3-10.5.2-6.6 4.3-11.6 11.1-11.8 6.2-.5 11.9 4.2 13.2 10.1.1.3.6.3.6-.1.1-3.6-1.5-7.3-4.2-9.9.5-2.1-.6-3.9-.6-3.9-2-.1-3.3.6-3.8 1-1.2-.5-2.5-.9-3.8-1.1-.9-2.8-3.4-4-3.4-4-2.8 1.7-3.3 4.2-3.3 4.2"/></defs><clipPath id="SVGID_00000056428127374141032150000004158891446777940126_"><use xlink:href="#SVGID_1_" style="overflow:visible"/></clipPath><path class="st22" d="M449.2 98.7h34.6v37.6h-34.6V98.7z" style="clip-path:url(#SVGID_00000056428127374141032150000004158891446777940126_)"/><path class="st20" d="M641.2 103.8h-15.7l-7.9 13.7 7.9 13.6h15.7l7.9-13.6z"/><path class="st21" d="M651.4 110.5h-29.8l-4 7 4 7h29.8z"/><path class="st20" d="m637.4 124.5 4-7-4-7M629.3 110.5l-4 7 4 7M818.5 391.2v-19.1l-16.5-9.6-16.6 9.6v19.1l16.6 9.6z"/><path class="st21" d="M791.6 375.2h12.8V388h-12.8zM808.3 373.8h4v4h-4zM808.3 385.5h4v4h-4zM808.3 379.7h4v4h-4zM808.3 381.7h-3.8M808.2 377.3l-3.8 3.1M808.3 386.1l-3.8-3"/><circle class="st20" cx="925" cy="537.9" r="4.1"/><path class="st20" d="M931.4 553v-1.9c0-3.6-2.9-6.4-6.4-6.4s-6.4 2.9-6.4 6.4v1.9h12.8z"/><circle class="st20" cx="945" cy="537.9" r="4.1"/><path class="st20" d="M951.4 553v-1.9c0-3.6-2.9-6.4-6.4-6.4s-6.4 2.9-6.4 6.4v1.9h12.8z"/><circle class="st20" cx="965" cy="537.9" r="4.1"/><path class="st20" d="M971.4 553v-1.9c0-3.6-2.9-6.4-6.4-6.4s-6.4 2.9-6.4 6.4v1.9h12.8z"/><circle class="st20" cx="985" cy="537.9" r="4.1"/><path class="st20" d="M991.4 553v-1.9c0-3.6-2.9-6.4-6.4-6.4s-6.4 2.9-6.4 6.4v1.9h12.8z"/><circle class="st20" cx="1005" cy="537.9" r="4.1"/><path class="st20" d="M1011.4 553v-1.9c0-3.6-2.9-6.4-6.4-6.4s-6.4 2.9-6.4 6.4v1.9h12.8zM790.1 246.5H814v17.8h-23.9z"/><path class="st21" d="M803.8 254c0-1-.8-1.8-1.9-1.8-.9 0-1.7.8-1.7 1.7 0 .8.4 1.4 1.1 1.7v2.4c0 .4.3.7.7.7.4 0 .7-.3.7-.7v-2.4c.7-.2 1.1-.9 1.1-1.6z"/><path class="st20" d="M808.2 243.6c0-3.4-2.7-6.1-6.1-6.1s-6.1 2.7-6.1 6.1v2.9h12.3l-.1-2.9z"/><path class="st21" d="M802 225.1v7.4M820.5 243.6h-7.4M783.5 243.6h7.4M788.9 230.5l5.2 5.2M815 230.5l-5.2 5.2"/><path d="M571 408.4v-3.5c0-.4-.4-.8-.8-.8h-5.4c-.4 0-.8.4-.8.8v3.5h-2v-3.5c0-.4-.4-.8-.8-.8h-1.3c-.4 0-.8.4-.8.8v3.5h-.4c-.4 0-.8.4-.8.8v29.1c0 .4.4.8.8.8h5.2c.2 0 .4-.2.4-.4v-.5c0-.5.4-1 1-1 .5 0 1 .4 1 1v.5c0 .2.2.4.4.4h5.2c.4 0 .8-.4.8-.8v-29.1c0-.4-.4-.8-.8-.8h-.9z" style="fill:#fff;stroke:#c46c6c;stroke-width:1.8;stroke-miterlimit:10"/><path class="st25" d="M567.5 405.5c.6 0 1.1.5 1.1 1.1v1.5c0 .6-.5 1.1-1.1 1.1-.6 0-1.1-.5-1.1-1.1v-1.5c.1-.6.5-1.1 1.1-1.1zM561.8 417.4h7c.6 0 1 .4 1 1v14.5c0 .6-.4 1-1 1h-7c-.6 0-1-.4-1-1v-14.5c0-.5.4-1 1-1zM565.7 412.8h3.1c.6 0 1 .4 1 1v1c0 .6-.4 1-1 1h-3.1c-.6 0-1-.4-1-1v-1c0-.6.5-1 1-1z"/><path d="M555.4 474.3h19.9c2.2 0 4 1.8 4 4v27c0 2.2-1.8 4-4 4h-19.9c-2.2 0-4-1.8-4-4v-27c0-2.2 1.8-4 4-4z" style="fill:#fff;stroke:#6cc398;stroke-width:1.8;stroke-miterlimit:10"/><circle class="st27" cx="565.3" cy="489.1" r="9.1"/><circle class="st27" cx="565.3" cy="489.1" r="2.6"/><circle class="st27" cx="576.5" cy="477.1" r="1"/><circle class="st27" cx="554.1" cy="477.1" r="1"/><circle class="st27" cx="576.5" cy="506.5" r="1"/><circle class="st27" cx="554.1" cy="506.5" r="1"/><path d="M567.1 502.7c0 1-.8 1.8-1.8 1.8s-1.8-.8-1.8-1.8v-6.3l1.8-1.6 1.8 1.6v6.3z" style="fill:#fff;stroke:#6cc398;stroke-width:.8;stroke-miterlimit:10"/><path d="M580.4 570.3c.1-.6.2-1.1.2-1.7 0-5.7-4.6-10.2-10.2-10.2-4.4 0-8.1 2.8-9.6 6.6-.9-.7-2-1.1-3.2-1.1-2.9 0-5.3 2.4-5.3 5.3-3.9.4-7 3.7-7 7.8 0 4.3 3.5 7.8 7.8 7.8h25.5c4.1 0 6.7-3.3 6.7-7.4 0-3.4-1.7-6.3-4.9-7.1z" style="fill:none;stroke:#6c97c3;stroke-width:2;stroke-miterlimit:10"/><path d="M75.6 513.4h-1v4.5h-1.7v-10.5h1.7v4.4h1l3.9-4.4h2.2l-4.7 5.1 5.1 5.4h-2.3l-4.2-4.5zM89.5 514.9c0 2.3-1.7 3.2-3.3 3.2-1.7 0-3.3-.9-3.3-3.2v-4.1h1.6v4c0 1.4.8 1.9 1.8 1.9s1.8-.5 1.8-1.9v-4h1.6l-.2 4.1zM99.3 514.3c0 2.2-1.6 3.8-3.6 3.8-1 0-1.8-.4-2.3-1v.9h-1.6v-10.8h1.6v4.5c.5-.6 1.2-1 2.3-1 2-.2 3.6 1.4 3.6 3.6zm-5.9 0c0 1.3.9 2.3 2.2 2.3 1.4 0 2.2-1 2.2-2.3 0-1.3-.8-2.3-2.2-2.3-1.4 0-2.2 1-2.2 2.3zM107.7 514.3v.6h-5.3c.2 1.3 1.1 1.8 2.1 1.8.7 0 1.5-.3 2.1-.8l.8 1.1c-.9.8-1.9 1-3 1-2.2 0-3.7-1.5-3.7-3.8s1.5-3.8 3.6-3.8c2 .1 3.4 1.7 3.4 3.9zm-5.3-.6h3.7c-.2-1.1-.8-1.8-1.8-1.8-1.1 0-1.8.8-1.9 1.8zM114.5 510.7l-.4 1.6c-.3-.2-.8-.3-1.2-.3-1 0-1.7.7-1.7 1.9v4h-1.6v-7.2h1.6v.8c.5-.7 1.2-1 2.1-1 .5 0 .8.1 1.2.2zM122.8 513.4v4.5h-1.6v-4c0-1.2-.6-1.9-1.7-1.9-1 0-1.9.7-1.9 1.9v4H116v-7.2h1.6v.9c.6-.8 1.5-1.1 2.2-1.1 1.8 0 3 1.2 3 2.9zM131.6 514.3v.6h-5.3c.2 1.3 1.1 1.8 2.1 1.8.7 0 1.5-.3 2.1-.8l.8 1.1c-.9.8-1.9 1-3 1-2.2 0-3.7-1.5-3.7-3.8s1.5-3.8 3.6-3.8c2 .1 3.4 1.7 3.4 3.9zm-5.3-.6h3.7c-.2-1.1-.8-1.8-1.8-1.8-1.1 0-1.7.8-1.9 1.8zM138.4 512.2h-2.8v3.1c0 1 .5 1.3 1.1 1.3.5 0 1-.2 1.4-.5l.6 1.3c-.6.4-1.3.7-2.2.7-1.6 0-2.6-.9-2.6-2.8v-3.2h-1.4v-1.4h1.4v-2.2h1.6v2.2h2.8v1.5zM146.8 514.3v.6h-5.3c.2 1.3 1.1 1.8 2.1 1.8.7 0 1.5-.3 2.1-.8l.8 1.1c-.9.8-1.9 1-3 1-2.2 0-3.7-1.5-3.7-3.8s1.5-3.8 3.6-3.8c2 .1 3.4 1.7 3.4 3.9zm-5.4-.6h3.7c-.2-1.1-.8-1.8-1.8-1.8-1.1 0-1.7.8-1.9 1.8zM153.6 512.5c-.4-.3-1.3-.6-2.2-.6-.9 0-1.4.3-1.4.9 0 .5.5.6 1.2.7l.7.1c1.6.2 2.5.9 2.5 2.1 0 1.4-1.2 2.4-3.3 2.4-.7 0-2-.1-3.1-.9l.7-1.2c.5.4 1.2.7 2.4.7 1.1 0 1.6-.3 1.6-.9 0-.4-.4-.7-1.2-.8l-.8-.1c-1.6-.2-2.4-1-2.4-2.1 0-1.4 1.1-2.3 3-2.3 1.1 0 2.2.3 2.9.8l-.6 1.2z"/><g id="layer1" transform="translate(-6.326 -174.752)"><g id="g3052"><path id="path3055" class="st22" d="M119.9 636.1c-.3 0-.7.1-1 .2l-13.4 6.4c-.7.3-1.2 1-1.4 1.7l-3.3 14.4c-.2.7 0 1.4.3 1.9 0 .1.1.1.1.2l9.3 11.5c.5.6 1.2 1 2 1h14.9c.8 0 1.5-.4 2-1l9.3-11.5c.5-.6.7-1.4.5-2.1l-3.3-14.4c-.2-.8-.7-1.4-1.4-1.7l-13.4-6.4c-.4-.1-.8-.2-1.2-.2z"/><path id="path3059" d="M120 641c-.4 0-.8.4-.8.9v.2c0 .3.1.5.1.8.1.6.1 1 .1 1.5 0 .2-.2.3-.3.4v.3c-.5 0-1 .1-1.4.2-2.1.5-3.9 1.5-5.2 3-.1-.1-.2-.2-.3-.2-.1 0-.3.1-.5 0-.4-.2-.7-.6-1.1-1-.2-.2-.3-.4-.5-.6 0 0-.1-.1-.2-.1-.2-.1-.4-.2-.6-.2-.2 0-.5.1-.6.3-.3.3-.2.9.2 1.2.1 0 .1.1.2.1.2.2.4.3.7.4.5.3.9.5 1.2.8.1.1.1.4.2.5l.3.2c-1.4 2.1-2 4.6-1.6 7.2l-.3.1c-.1.1-.2.3-.3.3-.4.1-.9.2-1.4.2-.3 0-.5 0-.8.1h-.2c-.5.1-.8.5-.7 1 .1.4.6.7 1 .6h.2c.3-.1.5-.2.7-.3.5-.2 1-.3 1.4-.4.2 0 .4.1.5.2l.3-.1c.8 2.5 2.5 4.5 4.6 5.8l-.1.3c.1.1.1.3.1.5-.2.4-.4.8-.7 1.3-.1.2-.3.4-.4.6 0 .1-.1.2-.1.2-.2.4-.1.9.3 1.1.4.2.9 0 1.1-.5 0-.1.1-.1.1-.2.1-.3.2-.5.2-.7.2-.5.3-1.1.6-1.4.1-.1.2-.1.3-.2l.2-.3c1.9.7 3.9.9 6 .4.5-.1.9-.2 1.4-.4.1.1.1.3.2.3s.3.1.4.2c.2.4.4.8.5 1.3.1.3.1.5.2.7 0 .1.1.1.1.2.2.4.7.6 1.1.5.4-.2.5-.7.3-1.1 0-.1-.1-.2-.1-.2-.1-.3-.3-.4-.4-.6-.3-.5-.6-.9-.7-1.3-.1-.2 0-.3.1-.5 0 0-.1-.2-.1-.3 2.2-1.3 3.9-3.4 4.6-5.8.1 0 .3 0 .3.1.1-.1.2-.2.4-.2.4.1.9.2 1.4.4.2.1.4.2.7.3h.2c.5.1.9-.2 1-.6.1-.4-.2-.9-.7-1-.1 0-.2 0-.2-.1-.3-.1-.5 0-.8-.1-.6-.1-1-.1-1.4-.2-.2-.1-.3-.3-.3-.3l-.3-.1c.2-1.2.1-2.5-.2-3.7-.3-1.3-.8-2.4-1.5-3.5l.3-.3c0-.1 0-.3.2-.5.3-.3.7-.5 1.2-.8.2-.1.4-.2.7-.4.1 0 .1-.1.2-.1.4-.3.5-.8.2-1.2-.3-.3-.8-.4-1.2-.1-.1 0-.1.1-.2.1-.2.2-.3.4-.5.6-.4.4-.7.7-1.1 1-.2.1-.4.1-.5.1l-.3.2c-1.7-1.8-4.1-3-6.7-3.2v-.4c-.1-.1-.2-.2-.3-.4 0-.4 0-.9.1-1.5 0-.3.1-.5.1-.8v-.2c-.1-.2-.5-.6-.9-.6zm-1 6.2-.2 4.2c0 .4-.3.7-.7.7-.2 0-.3 0-.4-.1l-3.4-2.4c1.1-1 2.4-1.8 4-2.2.1-.1.4-.2.7-.2zm2 0c1.8.2 3.5 1.1 4.8 2.3l-3.4 2.4c-.3.2-.7.2-1-.1-.1-.1-.1-.3-.2-.4l-.2-4.2zm-8.1 3.9 3.1 2.8c.3.2.3.7.1 1-.1.1-.2.2-.4.2l-4 1.2c-.2-1.9.3-3.7 1.2-5.2zm14.2 0c.5.8.8 1.6 1 2.5.2.9.3 1.8.2 2.7l-4.1-1.2c-.4-.1-.6-.5-.5-.8 0-.2.1-.3.2-.4l3.2-2.8zm-7.8 3h1.3l.8 1-.3 1.3-1.2.6-1.2-.6-.3-1.3c.1 0 .9-1 .9-1zm4.2 3.5h.2l4.2.7c-.6 1.7-1.8 3.2-3.3 4.2l-1.6-3.9c-.1-.3 0-.8.3-.9 0-.1.1-.1.2-.1zm-7 0c.3 0 .6.2.7.5v.4l-1.6 3.9c-1.5-1-2.7-2.4-3.3-4.2l4.1-.7c0 .1 0 .1.1.1zm3.5 1.7c.1 0 .2 0 .3.1l.3.3 2 3.7c-.3.1-.5.2-.8.2-1.6.4-3.1.2-4.5-.2l2-3.7c.2-.3.4-.4.7-.4z" style="fill:#fff"/></g></g><path class="st31" d="M227.2 511.4v2.2h5.7v1.4h-5.7v2.2h-1.3v-5.7h1.3zM232.9 509v1.4h-7V509h7zM232.9 502.2v5.2h-7v-5.2h1.3v3.8h1.6v-3.6h1.3v3.6h1.6v-3.8h1.2zM225.9 497.8c0-1.7.8-2.6 2.1-2.6 1.2 0 1.9.8 2.1 2.1l2.8-2.2v1.7l-2.8 2v.4h2.8v1.4h-7v-2.8zm1.3 1.6h1.7v-1.5c0-.8-.3-1.2-.9-1.2-.6 0-.8.4-.8 1.2v1.5zM232.9 492.6v1.4h-7v-1.4h7zM232.9 484.7v1.3l-4.7 3.6h4.7v1.4h-7v-1.3l4.7-3.6h-4.7v-1.4h7zM226.8 477.1l1 1c-.5.4-.7 1-.7 1.7 0 1.3.9 2.2 2.3 2.2s2.3-1 2.3-2.2c0-1.1-.6-1.8-1.5-2v1.8H229v-3.2h.4c2.1 0 3.6 1.4 3.6 3.4 0 1.9-1.4 3.7-3.6 3.7-2.1 0-3.6-1.5-3.6-3.7-.1-1.1.3-2.1 1-2.7z"/></svg>